<?xml version="1.0" encoding="UTF-8" standalone="no"?>
<!-- Created with Inkscape (http://www.inkscape.org/) -->

<svg
   width="900"
   height="900"
   viewBox="0 0 238.12499 238.125"
   version="1.1"
   id="svg1"
   sodipodi:docname="Twister.svg"
   inkscape:version="1.4.2 (f4327f4, 2025-05-13)"
   xmlns:inkscape="http://www.inkscape.org/namespaces/inkscape"
   xmlns:sodipodi="http://sodipodi.sourceforge.net/DTD/sodipodi-0.dtd"
   xmlns:xlink="http://www.w3.org/1999/xlink"
   xmlns="http://www.w3.org/2000/svg"
   xmlns:svg="http://www.w3.org/2000/svg">
  <sodipodi:namedview
     id="namedview1"
     pagecolor="#505050"
     bordercolor="#ffffff"
     borderopacity="1"
     inkscape:showpageshadow="0"
     inkscape:pageopacity="0"
     inkscape:pagecheckerboard="1"
     inkscape:deskcolor="#505050"
     inkscape:document-units="px"
     inkscape:zoom="0.91688179"
     inkscape:cx="-171.23254"
     inkscape:cy="485.88597"
     inkscape:window-width="3440"
     inkscape:window-height="1369"
     inkscape:window-x="-8"
     inkscape:window-y="-8"
     inkscape:window-maximized="1"
     inkscape:current-layer="g22" />
  <defs
     id="defs1">
    <linearGradient
       id="linearGradient21"
       inkscape:collect="always">
      <stop
         style="stop-color:#daf7f4;stop-opacity:1;"
         offset="0"
         id="stop21" />
      <stop
         style="stop-color:#26daba;stop-opacity:1;"
         offset="1"
         id="stop22" />
    </linearGradient>
    <inkscape:path-effect
       effect="skeletal"
       id="path-effect21"
       is_visible="true"
       lpeversion="1"
       pattern="m -155.68927,114.26735 h 119.572624 l -24.28181,-7.14171 c 0,0 4.489075,3.06073 -0.204049,3.87693 -4.693123,0.8162 -18.976543,-8.16195 -18.976543,-8.16195 0,0 6.529564,5.50931 0.204049,7.34575 -20.713761,5.35509 -26.775051,-0.10313 -41.932041,-12.80406 0,0 9.84536,9.59029 2.70365,11.73281 -7.14171,2.14251 -22.95549,-12.140908 -22.95549,-12.140908 0,0 9.94738,7.600818 3.11174,10.865598 -6.83564,3.26478 -17.65022,-2.04048 -17.65022,-2.04048 0,0 5.08286,2.2197 3.16275,5.63685 -1.50486,2.67813 -2.75466,2.83117 -2.75466,2.83117 z"
       copytype="single_stretched"
       prop_scale="1.405102"
       scale_y_rel="false"
       spacing="0"
       normal_offset="0"
       tang_offset="0"
       prop_units="false"
       vertical_pattern="false"
       hide_knot="false"
       fuse_tolerance="0" />
    <inkscape:path-effect
       effect="skeletal"
       id="path-effect19"
       is_visible="true"
       lpeversion="1"
       pattern="m -155.68927,114.26735 h 119.572624 l -24.28181,-7.14171 c 0,0 4.489075,3.06073 -0.204049,3.87693 -4.693123,0.8162 -18.976543,-8.16195 -18.976543,-8.16195 0,0 6.529564,5.50931 0.204049,7.34575 -20.713761,5.35509 -26.775051,-0.10313 -41.932041,-12.80406 0,0 9.84536,9.59029 2.70365,11.73281 -7.14171,2.14251 -22.95549,-12.140908 -22.95549,-12.140908 0,0 9.94738,7.600818 3.11174,10.865598 -6.83564,3.26478 -17.65022,-2.04048 -17.65022,-2.04048 0,0 5.08286,2.2197 3.16275,5.63685 -1.50486,2.67813 -2.75466,2.83117 -2.75466,2.83117 z"
       copytype="single_stretched"
       prop_scale="1.405102"
       scale_y_rel="false"
       spacing="0"
       normal_offset="0"
       tang_offset="0"
       prop_units="false"
       vertical_pattern="false"
       hide_knot="false"
       fuse_tolerance="0" />
    <inkscape:path-effect
       effect="skeletal"
       id="path-effect17"
       is_visible="true"
       lpeversion="1"
       pattern="m -155.68927,114.26735 h 119.572624 l -24.28181,-7.14171 c 0,0 4.489075,3.06073 -0.204049,3.87693 -4.693123,0.8162 -18.976543,-8.16195 -18.976543,-8.16195 0,0 6.529564,5.50931 0.204049,7.34575 -20.713761,5.35509 -26.775051,-0.10313 -41.932041,-12.80406 0,0 9.84536,9.59029 2.70365,11.73281 -7.14171,2.14251 -22.95549,-12.140908 -22.95549,-12.140908 0,0 9.94738,7.600818 3.11174,10.865598 -6.83564,3.26478 -17.65022,-2.04048 -17.65022,-2.04048 0,0 5.08286,2.2197 3.16275,5.63685 -1.50486,2.67813 -2.75466,2.83117 -2.75466,2.83117 z"
       copytype="single_stretched"
       prop_scale="1.405102"
       scale_y_rel="false"
       spacing="0"
       normal_offset="0"
       tang_offset="0"
       prop_units="false"
       vertical_pattern="false"
       hide_knot="false"
       fuse_tolerance="0" />
    <inkscape:path-effect
       effect="skeletal"
       id="path-effect15"
       is_visible="true"
       lpeversion="1"
       pattern="m -155.68927,114.26735 h 119.572624 l -24.28181,-7.14171 c 0,0 4.489075,3.06073 -0.204049,3.87693 -4.693123,0.8162 -18.976543,-8.16195 -18.976543,-8.16195 0,0 6.529564,5.50931 0.204049,7.34575 -20.713761,5.35509 -26.775051,-0.10313 -41.932041,-12.80406 0,0 9.84536,9.59029 2.70365,11.73281 -7.14171,2.14251 -22.95549,-12.140908 -22.95549,-12.140908 0,0 9.94738,7.600818 3.11174,10.865598 -6.83564,3.26478 -17.65022,-2.04048 -17.65022,-2.04048 0,0 5.08286,2.2197 3.16275,5.63685 -1.50486,2.67813 -2.75466,2.83117 -2.75466,2.83117 z"
       copytype="single_stretched"
       prop_scale="1.3090182"
       scale_y_rel="false"
       spacing="0"
       normal_offset="0"
       tang_offset="0"
       prop_units="false"
       vertical_pattern="false"
       hide_knot="false"
       fuse_tolerance="0" />
    <inkscape:path-effect
       effect="bend_path"
       id="path-effect14"
       is_visible="true"
       lpeversion="1"
       bendpath="m 179.77826,82.530631 c 0,0 -66.94792,-75.6049838 -102.153298,-36.071082 C 42.419589,85.993452 68.679336,136.2044 68.679336,136.2044"
       prop_scale="1"
       scale_y_rel="false"
       vertical="false"
       hide_knot="false" />
    <marker
       style="overflow:visible"
       id="ArrowWideHeavy"
       refX="0"
       refY="0"
       orient="auto-start-reverse"
       inkscape:stockid="Wide, heavy arrow"
       markerWidth="0.5"
       markerHeight="0.5"
       viewBox="0 0 1 1"
       inkscape:isstock="true"
       inkscape:collect="always"
       preserveAspectRatio="xMidYMid"
       markerUnits="strokeWidth">
      <path
         style="fill:context-stroke;fill-rule:evenodd;stroke:none"
         d="m 1,0 -3,3 h -2 l 3,-3 -3,-3 h 2 z"
         id="path4" />
    </marker>
    <marker
       style="overflow:visible"
       id="ArrowWideRounded"
       refX="0"
       refY="0"
       orient="auto-start-reverse"
       inkscape:stockid="Wide, rounded arrow"
       markerWidth="1"
       markerHeight="1"
       viewBox="0 0 1 1"
       inkscape:isstock="true">
      <path
         style="fill:none;stroke:context-stroke;stroke-width:1;stroke-linecap:round"
         d="M 3,-3 0,0 3,3"
         transform="rotate(180,0.125,0)"
         sodipodi:nodetypes="ccc"
         id="path3" />
    </marker>
    <radialGradient
       inkscape:collect="always"
       xlink:href="#linearGradient21"
       id="radialGradient22"
       cx="119.0625"
       cy="119.0625"
       fx="119.0625"
       fy="119.0625"
       r="123.03125"
       gradientUnits="userSpaceOnUse"
       gradientTransform="matrix(0.40127707,0,0,0.40127707,71.285449,71.285449)" />
  </defs>
  <path
     style="fill:#000000;stroke-width:2.64583;stroke-linecap:square;stroke-linejoin:bevel;stroke-dasharray:none"
     d="m -155.68927,114.26735 h 119.572624 l -24.28181,-7.14171 c 0,0 4.489075,3.06073 -0.204049,3.87693 -4.693123,0.8162 -18.976543,-8.16195 -18.976543,-8.16195 0,0 6.529564,5.50931 0.204049,7.34575 -20.713761,5.35509 -26.775051,-0.10313 -41.932041,-12.80406 0,0 9.84536,9.59029 2.70365,11.73281 -7.14171,2.14251 -22.95549,-12.140908 -22.95549,-12.140908 0,0 9.94738,7.600818 3.11174,10.865598 -6.83564,3.26478 -17.65022,-2.04048 -17.65022,-2.04048 0,0 5.08286,2.2197 3.16275,5.63685 -1.50486,2.67813 -2.75466,2.83117 -2.75466,2.83117 z"
     id="path13"
     sodipodi:nodetypes="cccscscscscsc" />
  <g
     inkscape:label="Camada 1"
     inkscape:groupmode="layer"
     id="layer1"
     inkscape:export-filename="AssembleLayer.png"
     inkscape:export-xdpi="96"
     inkscape:export-ydpi="96"
     style="display:none">
    <g
       id="g51">
      <circle
         style="fill:#916b3a;fill-opacity:1;stroke:#624928;stroke-width:2.60798;stroke-linecap:square;stroke-linejoin:bevel;stroke-dasharray:none;stroke-opacity:1"
         id="path22"
         cx="119.0625"
         cy="119.0625"
         r="117.75851" />
      <circle
         style="fill:#624928;fill-opacity:1;stroke:none;stroke-width:2.27539;stroke-linecap:square;stroke-linejoin:bevel;stroke-dasharray:none;stroke-opacity:1"
         id="circle22"
         cx="119.0625"
         cy="119.0625"
         r="102.7409" />
      <g
         id="g50"
         transform="matrix(0.95187828,0,0,0.95187828,6.5586025,5.4548044)">
        <circle
           style="opacity:0.331226;fill:#000000;fill-opacity:1;stroke:none;stroke-width:1.32771;stroke-linecap:square;stroke-linejoin:bevel;stroke-dasharray:none;stroke-opacity:1"
           id="circle23"
           cx="233.61893"
           cy="119.35107"
           r="4.5053358"
           inkscape:transform-center-x="-115.42746" />
        <circle
           style="opacity:0.331226;fill:#000000;fill-opacity:1;stroke:none;stroke-width:1.32771;stroke-linecap:square;stroke-linejoin:bevel;stroke-dasharray:none;stroke-opacity:1"
           id="circle28"
           cx="198.70134"
           cy="145.8745"
           r="4.5053358"
           inkscape:transform-center-x="-115.42746"
           transform="rotate(-15)" />
        <circle
           style="opacity:0.331226;fill:#000000;fill-opacity:1;stroke:none;stroke-width:1.32771;stroke-linecap:square;stroke-linejoin:bevel;stroke-dasharray:none;stroke-opacity:1"
           id="circle29"
           cx="158.10873"
           cy="162.4568"
           r="4.5053358"
           inkscape:transform-center-x="-115.42746"
           transform="rotate(-30)" />
        <circle
           style="opacity:0.331226;fill:#000000;fill-opacity:1;stroke:none;stroke-width:1.32771;stroke-linecap:square;stroke-linejoin:bevel;stroke-dasharray:none;stroke-opacity:1"
           id="circle30"
           cx="114.60751"
           cy="167.96794"
           r="4.5053358"
           inkscape:transform-center-x="-115.42746"
           transform="rotate(-45)" />
        <circle
           style="opacity:0.331226;fill:#000000;fill-opacity:1;stroke:none;stroke-width:1.32771;stroke-linecap:square;stroke-linejoin:bevel;stroke-dasharray:none;stroke-opacity:1"
           id="circle31"
           cx="71.16214"
           cy="162.03235"
           r="4.5053358"
           inkscape:transform-center-x="-115.42746"
           transform="rotate(-60)" />
        <circle
           style="opacity:0.331226;fill:#000000;fill-opacity:1;stroke:none;stroke-width:1.32771;stroke-linecap:square;stroke-linejoin:bevel;stroke-dasharray:none;stroke-opacity:1"
           id="circle32"
           cx="30.733383"
           cy="145.05453"
           r="4.5053358"
           inkscape:transform-center-x="-115.42746"
           transform="rotate(-75)" />
        <circle
           style="opacity:0.331226;fill:#000000;fill-opacity:1;stroke:none;stroke-width:1.32771;stroke-linecap:square;stroke-linejoin:bevel;stroke-dasharray:none;stroke-opacity:1"
           id="circle33"
           cx="-3.9236112"
           cy="118.19147"
           r="4.5053358"
           inkscape:transform-center-x="-115.42746"
           transform="rotate(-90)" />
        <circle
           style="opacity:0.331226;fill:#000000;fill-opacity:1;stroke:none;stroke-width:1.32771;stroke-linecap:square;stroke-linejoin:bevel;stroke-dasharray:none;stroke-opacity:1"
           id="circle34"
           cx="-30.447025"
           cy="83.273865"
           r="4.5053358"
           inkscape:transform-center-x="-115.42746"
           transform="rotate(-105)" />
        <circle
           style="opacity:0.331226;fill:#000000;fill-opacity:1;stroke:none;stroke-width:1.32771;stroke-linecap:square;stroke-linejoin:bevel;stroke-dasharray:none;stroke-opacity:1"
           id="circle35"
           cx="-47.029339"
           cy="42.68129"
           r="4.5053358"
           inkscape:transform-center-x="-115.42746"
           transform="rotate(-120)" />
        <circle
           style="opacity:0.331226;fill:#000000;fill-opacity:1;stroke:none;stroke-width:1.32771;stroke-linecap:square;stroke-linejoin:bevel;stroke-dasharray:none;stroke-opacity:1"
           id="circle36"
           cx="-52.540485"
           cy="-0.81995612"
           r="4.5053358"
           inkscape:transform-center-x="-115.42746"
           transform="rotate(-135)" />
        <circle
           style="opacity:0.331226;fill:#000000;fill-opacity:1;stroke:none;stroke-width:1.32771;stroke-linecap:square;stroke-linejoin:bevel;stroke-dasharray:none;stroke-opacity:1"
           id="circle37"
           cx="-46.604897"
           cy="-44.26532"
           r="4.5053358"
           inkscape:transform-center-x="-115.42746"
           transform="rotate(-150)" />
        <circle
           style="opacity:0.331226;fill:#000000;fill-opacity:1;stroke:none;stroke-width:1.32771;stroke-linecap:square;stroke-linejoin:bevel;stroke-dasharray:none;stroke-opacity:1"
           id="circle38"
           cx="-29.627069"
           cy="-84.694077"
           r="4.5053358"
           inkscape:transform-center-x="-115.42746"
           transform="rotate(-165)" />
        <circle
           style="opacity:0.331226;fill:#000000;fill-opacity:1;stroke:none;stroke-width:1.32771;stroke-linecap:square;stroke-linejoin:bevel;stroke-dasharray:none;stroke-opacity:1"
           id="circle39"
           cx="-2.7640181"
           cy="-119.35107"
           r="4.5053358"
           inkscape:transform-center-x="-115.42746"
           transform="scale(-1)" />
        <circle
           style="opacity:0.331226;fill:#000000;fill-opacity:1;stroke:none;stroke-width:1.32771;stroke-linecap:square;stroke-linejoin:bevel;stroke-dasharray:none;stroke-opacity:1"
           id="circle40"
           cx="32.153587"
           cy="-145.8745"
           r="4.5053358"
           inkscape:transform-center-x="-115.42746"
           transform="rotate(165)" />
        <circle
           style="opacity:0.331226;fill:#000000;fill-opacity:1;stroke:none;stroke-width:1.32771;stroke-linecap:square;stroke-linejoin:bevel;stroke-dasharray:none;stroke-opacity:1"
           id="circle41"
           cx="72.74617"
           cy="-162.4568"
           r="4.5053358"
           inkscape:transform-center-x="-115.42746"
           transform="rotate(150)" />
        <circle
           style="opacity:0.331226;fill:#000000;fill-opacity:1;stroke:none;stroke-width:1.32771;stroke-linecap:square;stroke-linejoin:bevel;stroke-dasharray:none;stroke-opacity:1"
           id="circle42"
           cx="116.24741"
           cy="-167.96794"
           r="4.5053358"
           inkscape:transform-center-x="-115.42746"
           transform="rotate(135)" />
        <circle
           style="opacity:0.331226;fill:#000000;fill-opacity:1;stroke:none;stroke-width:1.32771;stroke-linecap:square;stroke-linejoin:bevel;stroke-dasharray:none;stroke-opacity:1"
           id="circle43"
           cx="159.69278"
           cy="-162.03235"
           r="4.5053358"
           inkscape:transform-center-x="-115.42746"
           transform="rotate(120)" />
        <circle
           style="opacity:0.331226;fill:#000000;fill-opacity:1;stroke:none;stroke-width:1.32771;stroke-linecap:square;stroke-linejoin:bevel;stroke-dasharray:none;stroke-opacity:1"
           id="circle44"
           cx="200.12154"
           cy="-145.05453"
           r="4.5053358"
           inkscape:transform-center-x="-115.42746"
           transform="rotate(105)" />
        <circle
           style="opacity:0.331226;fill:#000000;fill-opacity:1;stroke:none;stroke-width:1.32771;stroke-linecap:square;stroke-linejoin:bevel;stroke-dasharray:none;stroke-opacity:1"
           id="circle45"
           cx="234.77853"
           cy="-118.19147"
           r="4.5053358"
           inkscape:transform-center-x="-115.42746"
           transform="rotate(90)" />
        <circle
           style="opacity:0.331226;fill:#000000;fill-opacity:1;stroke:none;stroke-width:1.32771;stroke-linecap:square;stroke-linejoin:bevel;stroke-dasharray:none;stroke-opacity:1"
           id="circle46"
           cx="261.30194"
           cy="-83.273865"
           r="4.5053358"
           inkscape:transform-center-x="-115.42746"
           transform="rotate(75)" />
        <circle
           style="opacity:0.331226;fill:#000000;fill-opacity:1;stroke:none;stroke-width:1.32771;stroke-linecap:square;stroke-linejoin:bevel;stroke-dasharray:none;stroke-opacity:1"
           id="circle47"
           cx="277.88425"
           cy="-42.68129"
           r="4.5053358"
           inkscape:transform-center-x="-115.42746"
           transform="rotate(60)" />
        <circle
           style="opacity:0.331226;fill:#000000;fill-opacity:1;stroke:none;stroke-width:1.32771;stroke-linecap:square;stroke-linejoin:bevel;stroke-dasharray:none;stroke-opacity:1"
           id="circle48"
           cx="283.39539"
           cy="0.81995612"
           r="4.5053358"
           inkscape:transform-center-x="-115.42746"
           transform="rotate(45)" />
        <circle
           style="opacity:0.331226;fill:#000000;fill-opacity:1;stroke:none;stroke-width:1.32771;stroke-linecap:square;stroke-linejoin:bevel;stroke-dasharray:none;stroke-opacity:1"
           id="circle49"
           cx="277.45984"
           cy="44.26532"
           r="4.5053358"
           inkscape:transform-center-x="-115.42746"
           transform="rotate(30)" />
        <circle
           style="opacity:0.331226;fill:#000000;fill-opacity:1;stroke:none;stroke-width:1.32771;stroke-linecap:square;stroke-linejoin:bevel;stroke-dasharray:none;stroke-opacity:1"
           id="circle50"
           cx="260.48199"
           cy="84.694077"
           r="4.5053358"
           inkscape:transform-center-x="-115.42746"
           transform="rotate(15)" />
      </g>
    </g>
  </g>
  <g
     inkscape:groupmode="layer"
     id="layer2"
     inkscape:label="Redemoinho"
     style="display:inline">
    <g
       id="g22"
       transform="matrix(0.7979631,0,0,0.7979631,24.092124,24.055019)"
       style="display:inline"
       inkscape:export-filename="Twister.png"
       inkscape:export-xdpi="96"
       inkscape:export-ydpi="96">
      <circle
         style="fill:url(#radialGradient22);fill-opacity:1;stroke:#ffffff;stroke-width:7.9375;stroke-linecap:square;stroke-linejoin:bevel;stroke-dasharray:none;stroke-opacity:1"
         id="path1"
         cx="119.0625"
         cy="119.0625"
         r="119.0625"
         inkscape:export-filename="TwisterPush.png"
         inkscape:export-xdpi="96"
         inkscape:export-ydpi="96" />
      <path
         style="fill:#247684;fill-opacity:1;stroke-width:2.64583;stroke-linecap:square;stroke-linejoin:bevel;stroke-dasharray:none"
         d="m 169.01238,222.52331 c 1.50716,-0.67179 3.01433,-1.34359 4.52149,-2.01539 6.28483,-3.61535 11.60247,-8.20613 15.96896,-13.24503 6.94652,-8.19143 11.90119,-17.45698 15.33437,-26.87067 0,0 0,-1e-5 1e-5,-2e-5 5.34692,-14.56306 7.82609,-29.63539 8.74098,-44.34482 0,0 0,-1e-5 0,-1e-5 1.20272,-19.06899 -3.52178,-38.100378 -12.97375,-54.425043 -1e-5,-3e-6 -1e-5,-6e-6 -1e-5,-9e-6 -9.0991,-15.792941 -22.46723,-29.098187 -38.64659,-37.900124 -7.96274,-4.322975 -16.61802,-7.477312 -25.65725,-9.194502 -9.20183,-1.737353 -18.68895,-1.900226 -27.9866,-0.428556 l 0,0 C 98.283925,35.715273 88.713633,39.157435 80.029555,44.023335 69.952177,49.69075 61.123883,57.002116 53.579358,65.195696 l -1.2e-5,2.5e-5 c -7.781013,8.544848 -12.694715,18.977126 -14.779356,29.746196 -2.085119,10.379343 -1.840259,21.187103 0.80431,31.518513 2.18426,9.25662 6.936965,18.57986 14.861853,26.04636 3.723636,3.40717 8.244366,6.10686 13.368155,7.79253 5.461166,1.69632 11.049217,2.06132 16.360198,1.24049 8.655702,-1.04936 18.370324,-3.59785 27.501514,-9.59855 l 0,0 c 5.57719,-3.65481 10.17193,-9.49296 12.48824,-17.0988 1.31163,-5.27707 1.21932,-10.46946 -0.0281,-15.17093 0,-1e-5 0,-2e-5 0,-3e-5 -0.38024,-1.52429 -0.88072,-3.0522 -1.50726,-4.56981 0,-1e-5 -1e-5,-2e-5 -1e-5,-3e-5 l 0,0 c -1e-5,-10e-6 -1e-5,-2e-5 -1e-5,-3e-5 -0.17903,-0.43519 -0.38752,-0.90505 -0.62845,-1.40774 -0.0846,-0.17277 -0.18213,-0.36716 -0.29297,-0.58292 l 0,0 c -2.47265,1.27847 -4.94629,2.55841 -7.42097,3.83985 -0.87442,0.45279 -1.74902,0.90564 -2.62374,1.35883 -0.004,0.002 -0.008,0.004 -0.0126,0.007 0.004,-0.002 0.008,-0.004 0.0126,-0.007 0.87472,-0.45319 1.74914,-0.90594 2.6232,-1.35854 2.47367,-1.28091 4.94486,-2.55956 7.41364,-3.83599 l 0,0 c 0.10336,0.21955 0.19323,0.41743 0.27017,0.59354 0,0 0,0 0,1e-5 0.21246,0.51557 0.39164,0.99651 0.5411,1.4419 0,1e-5 0,1e-5 0,1e-5 l 0,0 c 0.52357,1.55311 0.91518,3.10104 1.185,4.63165 l 0,0 c 0.90754,4.71829 0.63821,9.77583 -0.93083,14.68925 l 0,0 c -2.62405,7.07527 -7.3391,12.12046 -12.72028,15.12175 l 0,0 c -8.97186,4.96238 -18.203415,6.35718 -26.657889,6.64669 l 0,0 -6e-6,0 0,0 c -4.63017,0.30847 -9.306847,-0.40602 -13.580971,-2.16367 -4.028281,-1.6985 -7.47182,-4.23528 -10.231639,-7.24364 -4.145911,-4.57915 -6.859427,-9.91533 -8.537029,-15.43497 0,0 0.903652,4.40596 1.061152,6.87235 0.07745,1.21287 -0.12095,2.01179 -1.12099,1.41059 -0.864817,-0.5199 -2.904885,-2.63831 -4.982441,-7.14169 -0.893181,-1.93609 -1.68025,-4.35555 -2.214169,-7.15685 -1.717553,-8.44211 -1.184879,-18.77372 2.564914,-28.925991 3.964997,-10.833843 10.588274,-18.265433 16.644459,-22.527617 4.976969,-3.545175 8.408752,-5.348678 8.408752,-5.348678 0,0 -1.650351,0.758539 -3.735667,1.630137 -2.034362,0.850301 -4.660888,1.887546 -6.410131,2.110064 -1.585262,0.211815 -2.742396,-0.152307 -2.261867,-2.094451 0,0 0,-2e-6 0,-2e-6 0.344034,-1.531186 1.85929,-4.365994 5.372846,-8.256021 5.468449,-5.928255 11.330393,-10.820926 17.440103,-14.731764 8.848452,-5.648799 18.089731,-9.010235 26.910013,-10.495938 9.72299,-1.615855 18.92149,-0.944896 26.9374,1.121275 8.98978,2.325907 16.7992,6.417231 23.26255,11.442901 12.73209,9.91074 21.88427,24.604433 25.61934,41.585994 0,2e-6 0,8e-6 0,8e-6 0.79316,3.646473 1.33311,7.446037 1.57399,11.343663 0,0 -0.12041,-6.182602 -0.28562,-12.087712 -0.11319,-3.786449 -0.15092,-7.595435 0.93521,-9.170251 1.02714,-1.489284 3.59293,-1.241559 7.76718,4.144519 0.41511,0.534887 0.84391,1.121639 1.28221,1.761698 3.69219,5.3918 6.52989,13.112511 7.57424,21.960636 1.05187,8.9119 0.19021,18.02318 -2.33707,26.3788 -3.05126,10.16738 -6.71028,18.23438 -10.16932,24.3445 -3.31058,5.84788 -5.91032,9.04912 -5.91032,9.04912 0,0 1.24899,-1.77088 2.95722,-4.23198 1.50488,-2.16813 4.07576,-5.9318 5.8939,-8.22963 2.03732,-2.57486 3.9959,-4.51294 5.49528,-4.16697 1.49938,0.34597 2.64932,3.00663 2.27397,9.58162 -0.29435,5.15633 -1.43044,10.75044 -3.38365,16.364 -3.24731,9.35843 -8.49809,17.64841 -14.95776,23.9685 -5.19617,5.0574 -10.27028,7.94995 -14.29006,9.55814 -3.73254,1.06782 -5.95416,1.62522 -5.95416,1.62522 0,0 2.85806,-0.77351 6.10721,-1.32163 2.32913,-0.64254 5.2379,-1.55058 6.89927,-1.64859 1.71436,-0.10113 2.87825,0.59953 1.58933,3.28417 -1.24702,2.59735 -2.91345,4.66742 -4.5245,6.22769 -2.29452,2.01883 -4.07763,2.89584 -4.07763,2.89584 z"
         id="path14"
         inkscape:path-effect="#path-effect15"
         inkscape:original-d="m 162.92424,212.87261 c 0,0 34.82705,-8.73073 39.35989,-77.56893 C 206.81698,66.465491 122.64198,7.2715639 61.8842,72.885847 36.652245,100.13465 50.053858,155.17094 82.530631,150.34426 125.58039,143.94624 111.67606,118.31314 111.67606,118.31314"
         sodipodi:nodetypes="czssc" />
      <path
         style="fill:#247684;fill-opacity:1;stroke-width:2.64583;stroke-linecap:square;stroke-linejoin:bevel;stroke-dasharray:none"
         d="m 173.32938,233.19481 c 0.0673,-0.0503 0.13348,-0.10024 0.19857,-0.14965 1.76294,-1.33888 3.35582,-2.71252 4.80106,-4.07935 5.42509,-5.13851 9.94639,-10.84737 13.72138,-16.75388 1e-5,0 1e-5,-1e-5 1e-5,-2e-5 14.76116,-23.33115 20.85389,-50.23504 22.35679,-76.10995 1.21649,-18.91244 -3.53744,-37.906496 -13.4342,-54.018569 -9.48543,-15.409657 -23.37502,-27.916246 -39.80222,-35.665893 l 0,0 C 144.32537,38.500828 125.13419,36.032296 106.74574,39.671119 84.950492,44.267448 66.060129,56.513233 51.835533,72.105105 43.274223,81.747341 38.854351,93.467604 37.701841,104.84064 l 0,0 c -1.393589,11.92721 -0.133194,23.90476 3.313812,35.08876 l 0,0 c 2.965288,10.28918 8.304935,20.64642 16.818808,29.22844 7e-6,1e-5 1.5e-5,2e-5 2.2e-5,3e-5 3.758386,3.76779 8.481011,7.01331 14.087551,9.25494 l 0,0 c 5.622369,2.14993 11.679361,2.82523 17.667366,1.95457 l 0,0 c 8.514898,-1.02932 18.17431,-3.41819 27.48622,-9.14198 l 3e-5,-1e-5 0,0 c 5.51593,-3.24018 10.34021,-8.91697 12.96343,-16.80096 l 0,0 c 0,-2e-5 0,-3e-5 10e-6,-5e-5 1.36941,-5.38758 1.20208,-10.63422 -0.24604,-15.30013 0,-1e-5 -1e-5,-2e-5 -1e-5,-4e-5 -0.44049,-1.51444 -1.00996,-3.02069 -1.71126,-4.50463 0,-1e-5 -1e-5,-2e-5 -2e-5,-3e-5 -0.20161,-0.42858 -0.43756,-0.89372 -0.71056,-1.39347 -1e-5,-1e-5 -1e-5,-3e-5 -2e-5,-4e-5 -0.0984,-0.17602 -0.21246,-0.37541 -0.34264,-0.5979 -2.56975,1.51751 -5.14056,3.03684 -7.71251,4.55803 -0.91226,0.53957 -1.82473,1.07925 -2.73732,1.61931 -0.008,0.005 -0.0153,0.009 -0.0229,0.0138 0.008,-0.005 0.0152,-0.009 0.0229,-0.0138 0.91259,-0.54006 1.82488,-1.07964 2.73681,-1.619 2.57099,-1.52062 5.1395,-3.03857 7.70561,-4.5539 l 0,0 c 0.12316,0.22656 0.23004,0.42971 0.32116,0.60933 0.24626,0.51358 0.45451,0.99077 0.62811,1.43049 0.6044,1.52234 1.07021,3.05147 1.40484,4.57419 0,1e-5 0,1e-5 0,1e-5 l 0,0 c 1.12428,4.68751 0.94099,9.79874 -0.66406,14.81144 l 0,0 c -2.90073,7.33715 -7.80926,12.20176 -13.14222,14.85094 l -1e-5,0 0,0 c -9.18545,4.69322 -18.392005,5.9337 -26.764362,6.17772 l 0,0 c -5.117073,0.3252 -10.115558,-0.69693 -14.514833,-2.83276 l 10e-7,0 -6e-6,0 0,0 c -4.439583,-2.20768 -8.061166,-5.28979 -10.939666,-8.73882 -4.718202,-5.67635 -7.854614,-12.1107 -9.914734,-18.72812 0,0 0.888969,4.52506 0.91636,7.05426 0.01356,1.25174 -0.258296,2.05569 -1.270054,1.44478 -0.911689,-0.55049 -2.84284,-2.66585 -5.016379,-7.15093 -0.982996,-2.0284 -1.882333,-4.58938 -2.575579,-7.57108 -2.283795,-9.31365 -2.399909,-21.11694 1.016056,-32.67107 1.695666,-5.84752 4.243065,-11.005386 7.226633,-15.166357 2.98965,-4.169452 6.106655,-6.922301 8.797177,-8.718997 3.425608,-2.363842 5.620009,-3.590733 5.620009,-3.590733 0,0 -3.226824,1.583128 -6.435185,2.835893 -2.159018,0.811911 -4.429741,1.724951 -5.644318,1.420446 -1.255686,-0.314812 -1.781864,-2.008772 0.645368,-6.049394 0.814218,-1.395797 2.011408,-3.121509 3.669646,-5.100682 C 74.535361,55.00263 91.38658,45.829121 107.30782,42.474305 c 20.24634,-4.057669 38.33905,1.431034 50.90094,10.242524 0,0 0,6e-6 0,6e-6 12.96815,9.117925 22.57989,23.20575 26.39431,39.439808 0,3e-6 0,5e-6 0,7e-6 1.02391,4.363945 1.62226,8.94195 1.72599,13.63784 0,0 0.0872,-2.01023 0.12215,-4.86056 0.035,-2.853422 -0.0457,-6.566909 -0.0129,-9.906615 0.0293,-3.178662 0.21003,-6.07602 1.27816,-7.346843 1.02929,-1.224618 3.16848,-1.048375 6.52175,2.54716 0.89015,0.955737 1.8658,2.165962 2.87955,3.651702 3.47893,5.098678 6.12415,12.257256 7.11469,20.487026 0.99599,8.27503 0.23937,16.87237 -2.13314,24.92515 -3.40105,11.55497 -7.79494,21.11637 -11.92606,28.35848 -3.9724,6.96388 -7.12093,10.85849 -7.12093,10.85849 0,0 1.30149,-1.85463 3.11589,-4.40999 1.67164,-2.3543 4.28229,-6.03714 6.33528,-8.48729 2.20401,-2.6304 4.34372,-4.59871 5.95292,-4.20248 1.61002,0.39643 2.79683,3.18785 2.37724,9.99244 -0.85244,13.82444 -7.13012,28.60219 -16.02339,40.14247 l 0,0 c -4.92541,6.37332 -9.83885,10.67718 -13.89783,13.53182 l 0,0 c -1.8317,1.28792 -3.2878,2.13669 -4.37588,2.71211 l 0,0 c -0.52581,0.27807 -0.91609,0.46568 -1.20322,0.59717 l 0,0 c 0,0 0,0 0,0 -0.13998,0.064 -0.24099,0.10804 -0.31532,0.13969 0,0 0,0 0,0 -0.0364,0.0155 -0.0624,0.0263 -0.0815,0.0341 -0.0189,0.008 -0.0285,0.0116 -0.0285,0.0116 0,0 0.01,-0.004 0.0283,-0.012 0.0195,-0.008 0.0445,-0.0191 0.0809,-0.035 0,0 0,0 0,0 0.0775,-0.0338 0.17383,-0.0764 0.31485,-0.14033 l 0,0 c 0.31264,-0.14208 0.68192,-0.31528 1.21759,-0.57796 l 0,0 c 1.57952,-0.77457 2.52402,-1.29015 4.65786,-2.41553 l 0,0 c 2.22637,-1.17461 4.70621,-2.45572 6.37554,-2.75811 1.67486,-0.30339 2.85174,0.33341 2.27284,3.08427 -0.52527,2.49598 -1.41716,4.6258 -2.37508,6.34791 -1.5431,2.7716 -3.37634,4.46208 -3.96107,4.97089 -0.12203,0.10615 -0.19039,0.16047 -0.19039,0.16047 z"
         id="path15"
         inkscape:path-effect="#path-effect17"
         inkscape:original-d="m 164.77193,224.35938 c 0,0 32.97936,-20.2175 37.5122,-89.0557 C 206.81698,66.465491 121.50774,14.74544 60.749962,80.359723 35.518007,107.60853 55.326621,173.17674 87.803394,168.35006 130.85315,161.95204 116.57074,138.81023 116.57074,138.81023"
         sodipodi:nodetypes="czssc"
         transform="rotate(-165,109.94228,129.29726)" />
      <path
         style="fill:#174f58;fill-opacity:1;stroke-width:2.64583;stroke-linecap:square;stroke-linejoin:bevel;stroke-dasharray:none"
         d="m 169.31279,219.04764 c 0.25963,-0.0931 0.51038,-0.18589 0.75234,-0.2781 2.27817,-0.8683 4.41187,-1.84667 6.40685,-2.89049 7.03379,-3.68168 13.31803,-8.41204 18.74032,-13.83284 1e-5,0 2e-5,-1e-5 2e-5,-1e-5 8.23858,-8.2508 14.61496,-17.94709 19.15779,-28.24974 l 0,-1e-5 c 6.49397,-14.79266 9.63823,-30.45558 10.5839,-45.8011 0.65382,-10.0664 -0.95508,-20.17911 -4.68892,-29.538956 -3.71408,-9.182526 -9.18637,-17.351884 -15.76943,-24.229422 0,-2e-6 0,-6e-6 0,-9e-6 -6.85282,-7.176025 -14.75448,-13.085975 -23.20373,-17.724702 -8.77544,-4.836194 -18.17248,-8.412637 -27.85264,-10.688597 -19.67058,-4.718607 -40.92042,-3.935786 -60.377791,3.574943 -10.020383,3.92949 -19.294812,9.70367 -27.248054,17.040941 -8.789111,8.173048 -15.730256,17.941137 -20.755494,28.456401 -4e-6,9e-6 -9e-6,1.8e-5 -1.3e-5,2.7e-5 -2.629212,5.568954 -3.992078,11.436634 -4.202627,17.212224 -0.221615,5.88501 0.54443,11.6029 2.094985,16.95016 3.021896,10.74554 9.057351,20.64545 17.625673,28.27219 7e-6,0 1.4e-5,1e-5 2.1e-5,1e-5 4.074658,3.65085 8.947861,6.71915 14.509568,8.84183 5.514889,2.08039 11.557471,2.89833 17.704316,2.25131 6.814194,-0.85686 12.966826,-3.31166 18.101146,-6.83812 6.54317,-4.51183 11.66114,-10.03145 15.6002,-15.7518 -4.50805,5.31808 -10.10885,10.28799 -16.76544,14.01622 -5.2021,2.91409 -11.1655,4.68172 -17.348719,4.9018 -2e-6,0 -4e-6,0 -6e-6,0 -5.572275,0.11231 -10.855939,-1.13566 -15.498637,-3.39281 -4.706901,-2.30847 -8.676399,-5.43841 -11.925884,-8.98814 -6.862557,-7.48138 -11.063155,-16.67601 -12.62214,-25.98764 -0.141429,-0.8339 -0.260666,-1.67045 -0.356932,-2.50803 0,0 -0.04018,1.17672 -0.0967,2.6374 -0.07417,1.78766 -0.167121,4.23616 -0.67388,5.08938 -0.456957,0.76937 -1.754121,0.52911 -3.555232,-3.88326 -0.388453,-0.93942 -0.796017,-2.09155 -1.168944,-3.44763 -0.819636,-2.98047 -1.246954,-7.15934 -0.649335,-11.95242 0.583668,-4.72951 2.258176,-9.83788 5.325358,-14.490582 10e-7,0 3e-6,-4e-6 3e-6,-4e-6 6.855715,-9.968619 15.372148,-17.241196 23.452126,-21.872781 6.858965,-3.93428 11.934331,-5.302141 11.934331,-5.302141 0,0 -5.623529,1.4672 -9.356156,1.610376 -1.855021,0.07116 -3.296459,-0.280205 -3.215441,-1.780555 0.07473,-1.383897 1.67471,-4.282582 6.3583,-8.102761 4.607147,-3.670163 9.448312,-6.639088 14.309038,-8.966155 21.711766,-10.302986 43.225746,-8.745174 57.936426,-3.915508 9.63793,3.131029 17.97512,8.004833 24.85868,14.008545 6.61694,5.764211 12.28199,12.958074 16.15634,21.097617 3.2254,6.786548 5.38853,14.677872 5.26337,22.420259 -0.008,0.57207 -0.0274,1.14494 -0.0589,1.71811 0,0 0.0844,-0.669 0.19794,-1.77371 0.33366,-3.19529 0.20758,-10.280733 0.79327,-15.037138 0.29122,-2.365037 0.93161,-4.146432 2.54655,-4.269499 1.60865,-0.122587 4.31468,1.364229 7.69016,6.11492 1.4398,2.026398 2.74089,4.477104 3.78351,7.271007 2.86148,7.71964 3.33211,17.13587 0.83441,26.27746 -2.38298,8.5921 -5.8047,16.43953 -9.73848,23.08908 -3.9316,6.64587 -7.88194,11.27928 -10.90715,14.33364 -2.44745,2.47181 -4.02777,3.71697 -4.02777,3.71697 0,0 1.7257,-1.56668 4.03139,-3.71536 2.85801,-2.6634 7.52745,-7.27494 10.24503,-8.60703 2.71946,-1.333 5.62612,-0.2472 3.90628,9.06433 -0.3164,1.71303 -0.75554,3.46909 -1.31535,5.24832 -3.07388,9.74568 -9.421,18.90101 -17.44534,25.74247 -6.37739,5.4326 -12.77004,8.55028 -17.80755,10.28329 l 0,0 c -2.35599,0.81027 -4.2319,1.25714 -5.59568,1.51929 l 0,0 c -0.67301,0.12936 -1.17373,0.20439 -1.53658,0.25161 l 0,0 c 0,0 0,0 0,0 -0.17962,0.0234 -0.30919,0.0379 -0.40417,0.0476 0,0 0,0 0,0 l 0,0 c -0.0466,0.005 -0.0796,0.008 -0.10423,0.0101 -0.0183,5.1e-4 -0.0276,7e-4 -0.0276,7e-4 0,0 0.009,-4.3e-4 0.0274,-0.001 0.0259,-0.003 0.0564,-0.006 0.10391,-0.0111 l 0,0 0,0 0,0 c 0.10085,-0.0112 0.22214,-0.0251 0.40415,-0.0476 l 0,0 0,0 c 0.40489,-0.0499 0.8658,-0.11188 1.5508,-0.21382 l 0,0 c 1.84358,-0.27438 4.0543,-0.67367 5.89787,-0.94805 0,0 0,0 0,0 3.98578,-0.59463 8.43293,-0.9582 6.24439,3.30873 -0.75823,1.47828 -1.63614,2.74887 -2.53567,3.82282 -2.1246,2.54074 -4.41747,3.9101 -5.56251,4.49737 -0.45204,0.23188 -0.72912,0.33945 -0.72912,0.33945 z"
         id="path17"
         inkscape:path-effect="#path-effect19"
         inkscape:original-d="m 163.83439,208.06215 c 0,0 44.46372,-12.02688 48.99656,-80.86508 C 217.3638,58.358878 94.764402,19.562539 56.006868,100.15159 41.043695,131.26471 84.40268,184.31032 116.57074,138.81023"
         sodipodi:nodetypes="czsc"
         transform="rotate(78.14828,116.40387,121.30999)" />
      <path
         style="fill:#174f58;fill-opacity:1;stroke-width:2.64583;stroke-linecap:square;stroke-linejoin:bevel;stroke-dasharray:none"
         d="m 172.89153,221.7564 c 0.15143,-0.0706 0.29933,-0.14076 0.44372,-0.21029 2.1627,-1.0416 4.17137,-2.17316 6.03693,-3.35006 6.6805,-4.21803 12.54572,-9.35215 17.56489,-15.02821 1e-5,-1e-5 2e-5,-2e-5 2e-5,-2e-5 7.73306,-8.74535 13.67738,-18.71355 17.9456,-29.16348 l 0,-2e-5 c 6.07766,-14.91725 9.10627,-30.58746 10.07132,-46.00897 0.64096,-10.65886 -1.24558,-21.09781 -5.02317,-30.579075 -3.96565,-9.963329 -9.63644,-18.897801 -16.27335,-26.676731 -1e-5,-2e-6 -1e-5,-6e-6 -1e-5,-10e-6 C 189.43127,54.013481 171.01832,41.405482 150.94668,33.517952 140.97918,29.556665 130.4055,26.763877 119.48421,25.535443 109.08598,24.345352 98.275007,24.744979 87.631978,27.24158 77.140521,29.726216 67.123255,34.459427 58.485035,41.314591 l -1.7e-5,2.2e-5 c -9.498492,7.681926 -16.776914,17.400317 -21.777153,27.9241 -7e-6,1.6e-5 -1.3e-5,3.1e-5 -2e-5,4.6e-5 -1.849545,4.293447 -2.564241,7.917567 -2.643084,10.595346 0,1e-5 0,1.9e-5 -10e-7,2.9e-5 -0.341686,3.962783 -0.287424,7.682003 -0.03952,11.117425 0.589871,8.660294 2.126399,17.051881 4.240772,25.092801 2.115028,8.25122 5.002072,16.64244 9.157735,24.77575 1.756604,3.46897 3.942805,7.05185 6.727518,10.55779 2.180153,2.89239 5.311206,5.85049 9.543277,8.40518 4.361563,2.46145 9.115213,4.0538 14.020909,4.72197 4.715397,0.61675 9.340172,0.45151 13.713468,-0.36505 1e-5,0 2.1e-5,0 3.1e-5,0 8.522886,-1.60491 16.301445,-5.1831 22.861065,-10.09947 5.50155,-3.73904 10.90121,-9.39079 14.60741,-17.25504 1.54722,-2.96221 2.33401,-7.1794 1.83949,-12.41748 -1.02766,-5.3732 -3.7669,-9.67798 -7.81797,-12.50896 3.94339,2.98366 6.4558,7.35831 7.26392,12.59388 0.28263,5.11752 -0.70378,9.0969 -2.36537,11.86649 -4.08164,7.36457 -9.66237,12.23226 -15.24412,15.39923 -6.65752,4.12589 -14.22344,6.81152 -22.025058,7.5698 -3.983908,0.38633 -8.059946,0.18199 -12.026499,-0.69353 -2e-6,0 -4e-6,0 -6e-6,0 -4.113756,-0.91974 -7.974382,-2.60614 -11.359017,-4.92924 -3.020755,-2.10525 -5.212086,-4.65779 -6.870434,-7.23529 -1e-6,-10e-6 -2e-6,-10e-6 -3e-6,-10e-6 -2.073995,-3.14876 -3.640408,-6.42991 -4.927681,-9.70527 -1.352425,-3.43156 -2.462114,-6.90728 -3.383784,-10.40576 0,0 0.671244,4.6361 0.491638,7.1718 -0.126036,1.7794 -1.606569,3.80341 -5.895289,-6.07416 -1.380514,-3.17953 -2.571644,-7.50377 -3.406013,-12.65092 -1.203631,-7.25335 -1.68295,-15.731438 -0.874461,-24.362242 0.301952,-3.268325 0.79249,-6.527105 1.631994,-9.664888 0.602597,-2.337838 1.436749,-4.706499 2.82324,-6.669717 4.190546,-5.69834 8.459778,-9.732297 11.857757,-12.444978 3.322084,-2.652092 5.526985,-3.885827 5.526985,-3.885827 0,0 -1.420871,0.70673 -3.294522,1.645693 -1.721616,0.862773 -4.358041,2.20585 -6.108585,2.822169 -1.891567,0.66597 -3.441653,0.778131 -3.654133,-0.807984 -0.187162,-1.397115 0.84907,-5.062598 5.185075,-10.358974 1.706041,-2.041448 3.51333,-3.952265 5.411669,-5.729696 8.169218,-7.560566 17.66287,-12.316234 26.725629,-14.843538 11.014836,-3.055063 21.661338,-3.229791 30.756538,-1.99037 11.42954,1.5403 21.45628,5.240344 29.87343,9.882979 0,0 0,5e-6 0,5e-6 17.40122,9.553816 31.91999,25.183843 40.11304,44.667688 -1e-5,2e-6 0,8e-6 0,8e-6 1.89647,4.536202 3.4831,9.4089 4.47194,14.369128 0,0 -0.29765,-2.209156 -0.82392,-5.30737 -0.52667,-3.100554 -1.34738,-7.103341 -1.84774,-10.585938 -0.80644,-5.549807 -0.63919,-11.003357 6.56031,-5.554183 1.17984,0.892832 2.55256,2.119497 4.04788,3.723692 4.44372,4.767269 8.5817,12.016343 10.85798,20.702263 2.30508,8.77924 2.33451,18.25645 -0.17856,26.78369 0,0 0,1e-5 0,1e-5 -3.37671,11.54064 -7.90929,20.70833 -12.2429,27.48644 -4.16166,6.50917 -7.50582,9.94064 -7.50582,9.94064 0,0 1.46976,-1.74878 3.46313,-4.20174 1.62693,-2.00202 4.87342,-6.09319 6.80963,-8.25648 2.31424,-2.58567 4.51076,-4.55115 6.09917,-4.10652 1.58939,0.44491 2.71657,3.34387 1.8984,10.35022 -0.47366,4.05618 -1.48656,8.34954 -3.02816,12.68873 l 0,0 c -3.61132,10.15255 -9.74726,19.31938 -17.16676,26.43486 l 0,0 c -6.09024,5.83948 -12.12087,9.43046 -16.90102,11.59344 l 0,0 c -2.2389,1.01283 -4.01888,1.6297 -5.32119,2.02113 l 0,0 c -0.64117,0.19271 -1.11771,0.31576 -1.46436,0.39846 l 0,0 c 0,0 0,0 0,0 -0.17054,0.0406 -0.29374,0.0676 -0.38377,0.0865 0,0 0,0 0,0 -0.0443,0.009 -0.076,0.0157 -0.0991,0.0203 -0.0229,0.004 -0.0345,0.007 -0.0345,0.007 0,0 0.0117,-0.002 0.0343,-0.007 0.0237,-0.005 0.0542,-0.0115 0.0987,-0.0212 0,0 0,0 0,0 0.0942,-0.0206 0.21186,-0.0469 0.38355,-0.087 l 0,0 c 0.3783,-0.0886 0.82919,-0.19983 1.47707,-0.37167 l 0,0 c 1.9312,-0.51226 3.02857,-0.85949 5.57884,-1.61628 l 0,0 c 2.41454,-0.71699 5.00594,-1.45799 6.62196,-1.40414 1.6162,0.0539 2.5558,0.93113 1.41366,3.48348 -0.9577,2.14015 -2.15248,3.93071 -3.35659,5.37993 -2.1365,2.57311 -4.36659,4.00606 -5.28499,4.54224 -0.2727,0.15921 -0.43052,0.23788 -0.43052,0.23788 z"
         id="path19"
         inkscape:path-effect="#path-effect21"
         inkscape:original-d="m 166.26412,211.3867 c 0,0 42.03399,-15.35143 46.56683,-84.18963 C 217.3638,58.358878 86.414319,-6.0846944 47.656782,74.504355 c -6.071308,12.624149 5.037101,65.075865 22.029781,74.709835 24.886998,14.10964 59.384947,-18.14848 46.230077,-27.42673"
         sodipodi:nodetypes="czssc"
         transform="rotate(-68.930502,107.26886,113.20633)" />
      <path
         sodipodi:type="spiral"
         style="fill:none;fill-rule:evenodd;stroke:#ffffff;stroke-width:7.7121;stroke-linecap:round;stroke-dasharray:none;stroke-dashoffset:0;marker-mid:url(#ArrowWideHeavy)"
         id="path2"
         sodipodi:cx="259.3342"
         sodipodi:cy="104.34447"
         sodipodi:expansion="1"
         sodipodi:revolution="2.0884418"
         sodipodi:radius="122.54544"
         sodipodi:argument="-12.339693"
         sodipodi:t0="0"
         d="m 259.3342,104.34447 c 8.60027,1.98358 1.56924,12.57162 -3.29684,14.29421 -13.18679,4.66813 -24.32068,-9 -25.29159,-20.88789 -1.73673,-21.264638 18.66451,-36.637198 38.47894,-36.288965 29.07849,0.511046 49.19332,28.414781 47.28634,56.069995 -2.54169,36.86005 -38.18956,61.84399 -73.66104,58.28372 -44.63725,-4.48024 -74.54206,-47.97458 -69.2811,-91.252104 6.37173,-52.414887 57.76506,-87.2672672 108.84316,-80.2784679 60.19377,8.2360579 100.00948,67.5589029 91.27584,126.4342119 -3.27786,22.09673 -12.95156,43.03381 -27.43935,60.01556"
         transform="matrix(1.0292268,0,0,1.0292268,-156.25535,9.8425027)" />
    </g>
  </g>
</svg>
