<?xml version="1.0" encoding="UTF-8" standalone="no"?>
<!-- Created with Inkscape (http://www.inkscape.org/) -->

<svg
   width="300"
   height="300"
   viewBox="0 0 79.374998 79.375"
   version="1.1"
   id="svg1"
   inkscape:version="1.4.2 (f4327f4, 2025-05-13)"
   sodipodi:docname="Bola.svg"
   inkscape:export-filename="Objects\Ball\Ball_Shape.png"
   inkscape:export-xdpi="96"
   inkscape:export-ydpi="96"
   xmlns:inkscape="http://www.inkscape.org/namespaces/inkscape"
   xmlns:sodipodi="http://sodipodi.sourceforge.net/DTD/sodipodi-0.dtd"
   xmlns:xlink="http://www.w3.org/1999/xlink"
   xmlns="http://www.w3.org/2000/svg"
   xmlns:svg="http://www.w3.org/2000/svg">
  <sodipodi:namedview
     id="namedview1"
     pagecolor="#505050"
     bordercolor="#ffffff"
     borderopacity="1"
     inkscape:showpageshadow="0"
     inkscape:pageopacity="0"
     inkscape:pagecheckerboard="1"
     inkscape:deskcolor="#505050"
     inkscape:document-units="px"
     inkscape:zoom="2"
     inkscape:cx="-43"
     inkscape:cy="106.75"
     inkscape:window-width="3440"
     inkscape:window-height="1369"
     inkscape:window-x="-8"
     inkscape:window-y="-8"
     inkscape:window-maximized="1"
     inkscape:current-layer="layer2" />
  <defs
     id="defs1">
    <linearGradient
       id="linearGradient1409"
       inkscape:collect="always">
      <stop
         style="stop-color:#ffffff;stop-opacity:1;"
         offset="0"
         id="stop1409" />
      <stop
         style="stop-color:#ffffff;stop-opacity:0;"
         offset="1"
         id="stop1410" />
    </linearGradient>
    <linearGradient
       id="linearGradient1401"
       inkscape:collect="always">
      <stop
         style="stop-color:#d5ab35;stop-opacity:1;"
         offset="0"
         id="stop1401" />
      <stop
         style="stop-color:#977820;stop-opacity:1;"
         offset="1"
         id="stop1402" />
    </linearGradient>
    <linearGradient
       id="linearGradient1399"
       inkscape:collect="always">
      <stop
         style="stop-color:#00efff;stop-opacity:1;"
         offset="0"
         id="stop1399" />
      <stop
         style="stop-color:#00c3d0;stop-opacity:1;"
         offset="1"
         id="stop1400" />
    </linearGradient>
    <linearGradient
       id="linearGradient1397"
       inkscape:collect="always">
      <stop
         style="stop-color:#00efff;stop-opacity:1;"
         offset="0"
         id="stop1397" />
      <stop
         style="stop-color:#00c3d0;stop-opacity:1;"
         offset="1"
         id="stop1398" />
    </linearGradient>
    <linearGradient
       id="linearGradient1395"
       inkscape:collect="always">
      <stop
         style="stop-color:#00efff;stop-opacity:1;"
         offset="0"
         id="stop1395" />
      <stop
         style="stop-color:#00c3d0;stop-opacity:1;"
         offset="1"
         id="stop1396" />
    </linearGradient>
    <linearGradient
       id="linearGradient1392"
       inkscape:collect="always">
      <stop
         style="stop-color:#00efff;stop-opacity:1;"
         offset="0"
         id="stop1393" />
      <stop
         style="stop-color:#00c3d0;stop-opacity:1;"
         offset="1"
         id="stop1394" />
    </linearGradient>
    <linearGradient
       id="linearGradient1391"
       inkscape:collect="always">
      <stop
         style="stop-color:#8ff8ff;stop-opacity:1;"
         offset="0"
         id="stop1391" />
      <stop
         style="stop-color:#00d7e6;stop-opacity:1;"
         offset="1"
         id="stop1392" />
    </linearGradient>
    <linearGradient
       id="linearGradient113"
       inkscape:collect="always">
      <stop
         style="stop-color:#ffffff;stop-opacity:1;"
         offset="0"
         id="stop113" />
      <stop
         style="stop-color:#ffffff;stop-opacity:0;"
         offset="1"
         id="stop114" />
    </linearGradient>
    <linearGradient
       inkscape:collect="always"
       xlink:href="#linearGradient113"
       id="linearGradient114"
       x1="40.415104"
       y1="37.769268"
       x2="40.481255"
       y2="59.398949"
       gradientUnits="userSpaceOnUse"
       gradientTransform="matrix(1,0,0,0.77663228,0.19843747,9.7291179)" />
    <radialGradient
       inkscape:collect="always"
       xlink:href="#linearGradient1391"
       id="radialGradient1392"
       cx="-43.685204"
       cy="18.80241"
       fx="-43.685204"
       fy="18.80241"
       r="17.797454"
       gradientTransform="matrix(1.2009178,0,0,1.3617862,8.7771329,-6.802452)"
       gradientUnits="userSpaceOnUse" />
    <linearGradient
       inkscape:collect="always"
       xlink:href="#linearGradient1392"
       id="linearGradient1394"
       x1="65.748955"
       y1="40.216667"
       x2="78.316666"
       y2="40.745834"
       gradientUnits="userSpaceOnUse"
       gradientTransform="matrix(0.96030702,0,0,0.96030702,1.575315,1.575315)" />
    <linearGradient
       inkscape:collect="always"
       xlink:href="#linearGradient1395"
       id="linearGradient1396"
       x1="12.303124"
       y1="40.348957"
       x2="0.39687499"
       y2="40.348957"
       gradientUnits="userSpaceOnUse"
       gradientTransform="matrix(0.96030702,0,0,0.96030702,1.575315,1.575315)" />
    <linearGradient
       inkscape:collect="always"
       xlink:href="#linearGradient1397"
       id="linearGradient1398"
       x1="39.290623"
       y1="14.287499"
       x2="39.290623"
       y2="1.0583333"
       gradientUnits="userSpaceOnUse"
       gradientTransform="matrix(0.96030702,0,0,0.96030702,1.575315,1.575315)" />
    <linearGradient
       inkscape:collect="always"
       xlink:href="#linearGradient1399"
       id="linearGradient1400"
       x1="39.290623"
       y1="66.542709"
       x2="39.290623"
       y2="78.052078"
       gradientUnits="userSpaceOnUse"
       gradientTransform="matrix(0.96030702,0,0,0.96030702,1.575315,1.575315)" />
    <radialGradient
       inkscape:collect="always"
       xlink:href="#linearGradient1401"
       id="radialGradient1402"
       cx="39.6875"
       cy="39.6875"
       fx="39.6875"
       fy="39.6875"
       r="39.241025"
       gradientUnits="userSpaceOnUse"
       gradientTransform="matrix(0.96030702,0,0,0.96030702,1.575315,1.575315)" />
    <filter
       inkscape:collect="always"
       style="color-interpolation-filters:sRGB"
       id="filter1402"
       x="-0.045357495"
       y="-0.040940801"
       width="1.090715"
       height="1.0818816">
      <feGaussianBlur
         inkscape:collect="always"
         stdDeviation="0.64975492"
         id="feGaussianBlur1402" />
    </filter>
    <filter
       inkscape:collect="always"
       style="color-interpolation-filters:sRGB"
       id="filter1404"
       x="-0.050993316"
       y="-0.01839935"
       width="1.1019866"
       height="1.0367987">
      <feGaussianBlur
         inkscape:collect="always"
         stdDeviation="0.27925358"
         id="feGaussianBlur1404" />
    </filter>
    <filter
       inkscape:collect="always"
       style="color-interpolation-filters:sRGB"
       id="filter1405"
       x="-0.080315369"
       y="-0.0303872"
       width="1.1606307"
       height="1.0607744">
      <feGaussianBlur
         inkscape:collect="always"
         stdDeviation="0.49322939"
         id="feGaussianBlur1405" />
    </filter>
    <filter
       inkscape:collect="always"
       style="color-interpolation-filters:sRGB"
       id="filter1406"
       x="-0.031600671"
       y="-0.067441399"
       width="1.0632013"
       height="1.1348828">
      <feGaussianBlur
         inkscape:collect="always"
         stdDeviation="0.46552932"
         id="feGaussianBlur1406" />
    </filter>
    <filter
       inkscape:collect="always"
       style="color-interpolation-filters:sRGB"
       id="filter1407"
       x="-0.022792279"
       y="-0.050258165"
       width="1.0455846"
       height="1.1005163">
      <feGaussianBlur
         inkscape:collect="always"
         stdDeviation="0.32775042"
         id="feGaussianBlur1407" />
    </filter>
    <linearGradient
       inkscape:collect="always"
       xlink:href="#linearGradient1409"
       id="linearGradient1410"
       x1="43.217484"
       y1="51.355839"
       x2="43.217484"
       y2="63.000187"
       gradientUnits="userSpaceOnUse"
       gradientTransform="matrix(1.0107143,0,0,1.1023809,-2.5748301,-5.3162132)" />
  </defs>
  <g
     inkscape:label="Camada 1"
     inkscape:groupmode="layer"
     id="layer1"
     style="display:none">
    <ellipse
       style="display:none;opacity:0.43418;fill:url(#linearGradient114);stroke:none;stroke-width:2.9982;stroke-linecap:round;stroke-linejoin:bevel;stroke-dasharray:none"
       id="path113"
       cx="40.183594"
       cy="53.445831"
       rx="30.129427"
       ry="14.948959" />
    <circle
       style="opacity:1;fill:url(#radialGradient1402);stroke:#000000;stroke-width:1.74599;stroke-linecap:round;stroke-linejoin:bevel;stroke-dasharray:none;stroke-opacity:1"
       id="path1372"
       cx="39.6875"
       cy="39.6875"
       r="37.061787" />
    <ellipse
       style="opacity:1;fill:#6f5920;fill-opacity:1;stroke:none;stroke-width:1.7198;stroke-linecap:round;stroke-linejoin:bevel;stroke-dasharray:none;stroke-opacity:1"
       id="path1386"
       cx="39.6875"
       cy="40.741753"
       rx="34.674873"
       ry="5.1203833" />
    <path
       d="M 57.365458,6.5556857 A 39.715089,39.715089 0 0 0 39.6875,2.4046129 39.715089,39.715089 0 0 0 22.009551,6.5556857 c 0.05341,2.6786604 0.288805,5.1099953 0.705665,5.6113403 0.956375,1.150195 15.059545,6.804123 16.972284,6.804123 1.912748,0 16.015909,-5.653928 16.972283,-6.804123 0.41686,-0.501345 0.652216,-2.9326788 0.705675,-5.6113403 z"
       style="opacity:0.267898;mix-blend-mode:normal;fill:#000000;fill-opacity:1;stroke:none;stroke-width:1.24973;stroke-linecap:round;stroke-linejoin:bevel;filter:url(#filter1406)"
       id="path1406" />
    <ellipse
       style="opacity:1;fill:#6f5920;fill-opacity:1;stroke:none;stroke-width:1.7198;stroke-linecap:round;stroke-linejoin:bevel;stroke-dasharray:none;stroke-opacity:1"
       id="ellipse1386"
       cx="40.741753"
       cy="-39.6875"
       rx="34.674873"
       ry="5.1203833"
       transform="rotate(90)" />
    <path
       d="m 72.101554,20.209718 c -3.060565,2.292352 -8.917109,7.879075 -9.411249,9.244644 -0.625965,1.729855 -0.625965,18.736421 0,20.466276 0.49414,1.365569 6.350684,6.952293 9.411249,9.244645 A 41.474192,41.474192 0 0 0 76.959611,39.6875 41.474192,41.474192 0 0 0 72.101554,20.209718 Z"
       style="opacity:0.189376;fill:#000000;fill-opacity:1;stroke:none;stroke-width:1.30508;stroke-linecap:round;stroke-linejoin:bevel;filter:url(#filter1405)"
       id="path1405" />
    <path
       sodipodi:type="star"
       style="opacity:0.351039;mix-blend-mode:normal;fill:#000000;fill-opacity:1;stroke:none;stroke-width:1.21444;stroke-linecap:round;stroke-linejoin:bevel;stroke-dasharray:none;stroke-opacity:1;filter:url(#filter1402)"
       id="path1402"
       inkscape:flatsided="true"
       sodipodi:sides="6"
       sodipodi:cx="-43.685204"
       sodipodi:cy="18.80241"
       sodipodi:r1="19.044716"
       sodipodi:r2="16.493208"
       sodipodi:arg1="0.52359878"
       sodipodi:arg2="1.0471976"
       inkscape:rounded="0.097598481"
       inkscape:randomized="0"
       d="m -27.191996,28.324768 c -0.929368,1.609712 -14.634472,9.522358 -16.493208,9.522358 -1.858735,0 -15.56384,-7.912646 -16.493207,-9.522358 -0.929368,-1.609712 -0.929368,-17.435004 0,-19.0447159 0.929367,-1.609712 14.634472,-9.52235786 16.493208,-9.52235786 1.858735,1e-8 15.56384,7.91264596 16.493207,9.52235806 0.929368,1.6097117 0.929368,17.4350037 0,19.0447157 z"
       transform="matrix(1.0329314,0,0,1.0329314,84.811321,20.265897)" />
    <path
       sodipodi:type="star"
       style="fill:url(#radialGradient1392);stroke:#008080;stroke-width:1.21444;stroke-linecap:round;stroke-linejoin:bevel;stroke-dasharray:none;stroke-opacity:1"
       id="path1373"
       inkscape:flatsided="true"
       sodipodi:sides="6"
       sodipodi:cx="-43.685204"
       sodipodi:cy="18.80241"
       sodipodi:r1="19.044716"
       sodipodi:r2="16.493208"
       sodipodi:arg1="0.52359878"
       sodipodi:arg2="1.0471976"
       inkscape:rounded="0.097598481"
       inkscape:randomized="0"
       d="m -27.191996,28.324768 c -0.929368,1.609712 -14.634472,9.522358 -16.493208,9.522358 -1.858735,0 -15.56384,-7.912646 -16.493207,-9.522358 -0.929368,-1.609712 -0.929368,-17.435004 0,-19.0447159 0.929367,-1.609712 14.634472,-9.52235786 16.493208,-9.52235786 1.858735,1e-8 15.56384,7.91264596 16.493207,9.52235806 0.929368,1.6097117 0.929368,17.4350037 0,19.0447157 z"
       transform="matrix(0.97975161,0,0,0.97975161,82.48815,21.265806)" />
    <path
       d="m 56.943365,72.19401 c -0.07107,-2.402871 -0.296598,-4.499051 -0.676358,-4.955775 -0.934241,-1.123579 -14.711024,-6.64666 -16.579507,-6.64666 -1.868473,0 -15.645266,5.523081 -16.579507,6.64666 -0.37976,0.456724 -0.605327,2.552905 -0.676358,4.955775 A 38.795995,38.795995 0 0 0 39.6875,76.242783 38.795995,38.795995 0 0 0 56.943365,72.19401 Z"
       style="opacity:0.187067;fill:#000000;fill-opacity:1;stroke:none;stroke-width:1.22081;stroke-linecap:round;stroke-linejoin:bevel;filter:url(#filter1407)"
       id="path1407" />
    <path
       d="m 6.8168105,57.806789 c 3.0731735,-2.468737 7.8740915,-7.113775 8.3122225,-8.324563 0.604858,-1.671558 0.604858,-18.104982 0,-19.77654 C 14.690902,28.494899 9.889984,23.849861 6.8168105,21.381123 A 40.076464,40.076464 0 0 0 2.4396094,39.593956 40.076464,40.076464 0 0 0 6.8168105,57.806789 Z"
       style="opacity:0.200924;fill:#000000;fill-opacity:1;stroke:none;stroke-width:1.2611;stroke-linecap:round;stroke-linejoin:bevel;filter:url(#filter1404)"
       id="path1404"
       transform="matrix(1.0198155,0,0,1.0198155,-0.08501618,-0.69103059)" />
    <path
       d="M 56.518457,5.8276293 A 37.812226,37.812226 0 0 0 39.6875,1.8754462 37.812226,37.812226 0 0 0 22.856552,5.8276293 c 0.05085,2.5503181 0.274968,4.8651607 0.671855,5.3424847 0.910552,1.095086 14.337999,6.478118 16.159093,6.478118 1.821103,0 15.248541,-5.383032 16.159093,-6.478118 0.396887,-0.477324 0.620966,-2.7921656 0.671864,-5.3424847 z"
       style="fill:url(#linearGradient1398);fill-opacity:1;stroke:#008080;stroke-width:1.18985;stroke-linecap:round;stroke-linejoin:bevel"
       id="path1382" />
    <path
       d="M 56.5058,73.553447 C 56.43653,71.211507 56.216723,69.16848 55.846593,68.723338 54.936041,67.628251 41.508603,62.245221 39.6875,62.245221 c -1.821094,0 -15.248541,5.38303 -16.159093,6.478117 -0.37013,0.445142 -0.589977,2.48817 -0.659207,4.830109 a 37.812226,37.812226 0 0 0 16.8183,3.946106 37.812226,37.812226 0 0 0 16.8183,-3.946106 z"
       style="fill:url(#linearGradient1400);fill-opacity:1;stroke:#008080;stroke-width:1.18985;stroke-linecap:round;stroke-linejoin:bevel"
       id="path1384" />
    <path
       d="m 73.070441,21.92951 c -2.790333,2.089948 -8.129773,7.183391 -8.580283,8.428387 -0.570695,1.577118 -0.570695,17.082088 0,18.659206 0.45051,1.244996 5.78995,6.33844 8.580283,8.428388 A 37.812226,37.812226 0 0 0 77.499555,39.6875 37.812226,37.812226 0 0 0 73.070441,21.92951 Z"
       style="fill:url(#linearGradient1394);fill-opacity:1;stroke:#008080;stroke-width:1.18985;stroke-linecap:round;stroke-linejoin:bevel"
       id="path1383" />
    <path
       d="m 6.0053425,56.871345 c 2.8995455,-2.329258 7.4292215,-6.711861 7.8425995,-7.854242 0.570685,-1.577118 0.570685,-17.082088 0,-18.659206 -0.413378,-1.14238 -4.943054,-5.524983 -7.8425995,-7.854242 A 37.812226,37.812226 0 0 0 1.8754443,39.6875 37.812226,37.812226 0 0 0 6.0053425,56.871345 Z"
       style="fill:url(#linearGradient1396);fill-opacity:1;stroke:#008080;stroke-width:1.18985;stroke-linecap:round;stroke-linejoin:bevel"
       id="path1385" />
    <path
       d="m 6.0053425,56.871345 c 2.8995455,-2.329258 7.4292215,-6.711861 7.8425995,-7.854242 0.570685,-1.577118 0.570685,-17.082088 0,-18.659206 -0.413378,-1.14238 -4.943054,-5.524983 -7.8425995,-7.854242 A 37.812226,37.812226 0 0 0 1.8754443,39.6875 37.812226,37.812226 0 0 0 6.0053425,56.871345 Z"
       style="fill:url(#linearGradient1396);fill-opacity:1;stroke:#008080;stroke-width:1.18985;stroke-linecap:round;stroke-linejoin:bevel"
       id="path1403" />
  </g>
  <g
     inkscape:groupmode="layer"
     id="layer2"
     inkscape:label="Brilho"
     style="display:inline">
    <ellipse
       style="opacity:0.595843;fill:url(#linearGradient1410);fill-opacity:1;stroke:none;stroke-width:1.84299;stroke-linecap:round;stroke-linejoin:bevel;stroke-dasharray:none;stroke-opacity:1"
       id="path1408"
       cx="39.6875"
       cy="60.990902"
       rx="26.473047"
       ry="12.374579" />
    <circle
       style="opacity:0.667436;fill:#ffffff;fill-opacity:1;stroke:none;stroke-width:1.74599;stroke-linecap:round;stroke-linejoin:bevel;stroke-dasharray:none;stroke-opacity:1"
       id="circle1410"
       cx="18.391644"
       cy="14.644051"
       r="1.4552083"
       transform="rotate(-8.5379325)" />
    <circle
       style="opacity:0.667436;fill:#ffffff;fill-opacity:1;stroke:none;stroke-width:0.952358;stroke-linecap:round;stroke-linejoin:bevel;stroke-dasharray:none;stroke-opacity:1"
       id="path1410"
       cx="14.422893"
       cy="16.165405"
       r="0.79374999"
       transform="rotate(-8.5379325)" />
  </g>
</svg>
